<?xml version="1.0" standalone="no"?>
<!DOCTYPE svg PUBLIC "-//W3C//DTD SVG 20010904//EN"
 "http://www.w3.org/TR/2001/REC-SVG-20010904/DTD/svg10.dtd">
<svg version="1.0" xmlns="http://www.w3.org/2000/svg"
 width="512.000000pt" height="512.000000pt" viewBox="0 0 512.000000 512.000000"
 preserveAspectRatio="xMidYMid meet">
<metadata>
Created by potrace 1.11, written by Peter Selinger 2001-2013
</metadata>
<g transform="translate(0.000000,512.000000) scale(0.100000,-0.100000)"
fill="#000000" stroke="none">
<path d="M1420 5113 c-14 -2 -58 -13 -99 -24 -281 -75 -501 -296 -583 -586
-29 -105 -31 -304 -4 -408 26 -98 61 -179 113 -259 48 -74 179 -210 213 -221
11 -3 20 -10 20 -14 0 -4 36 -25 79 -47 l80 -39 0 -952 1 -953 -63 -31 c-233
-118 -393 -325 -450 -583 -15 -64 -16 -243 -3 -318 32 -189 167 -400 331 -519
231 -168 565 -202 823 -84 173 79 340 244 413 409 l20 46 248 0 248 0 19 -43
c55 -122 172 -261 283 -336 159 -108 297 -149 486 -145 66 2 127 5 135 7 85
22 114 31 170 54 133 54 280 171 358 284 64 94 113 209 138 324 14 64 12 250
-3 320 -71 334 -347 603 -673 653 -54 8 -229 8 -285 0 -98 -14 -265 -88 -355
-156 -96 -73 -196 -197 -247 -307 -10 -22 -21 -42 -25 -45 -3 -3 -116 -5 -250
-5 l-243 0 -42 78 c-49 91 -79 133 -148 203 -65 67 -145 124 -222 160 -56 26
-63 32 -63 59 -3 122 -1 1877 2 1879 1 1 32 17 68 35 509 258 612 938 203
1337 -108 106 -276 195 -413 219 -42 8 -245 13 -280 8z m283 -557 c157 -91
199 -306 88 -452 -143 -189 -428 -159 -530 56 -35 74 -36 191 -2 262 81 167
283 229 444 134z m-84 -3421 c97 -21 187 -107 221 -209 12 -39 16 -129 6 -172
-16 -76 -94 -168 -173 -206 -72 -34 -199 -32 -268 4 -115 61 -180 168 -174
291 9 201 189 336 388 292z m2075 -13 c64 -25 126 -80 161 -143 27 -49 30 -62
30 -149 0 -85 -3 -100 -27 -141 -37 -63 -88 -112 -145 -140 -69 -33 -198 -33
-266 0 -62 31 -121 89 -148 147 -26 58 -30 76 -30 142 -2 212 224 363 425 284z"/>
</g>
</svg>
